<svg width="16" height="16" viewBox="0 0 16 16" fill="none" xmlns="http://www.w3.org/2000/svg">
<path fill-rule="evenodd" clip-rule="evenodd" d="M9.33334 11.9999C9.33334 12.7363 8.73637 13.3333 8 13.3333C7.26363 13.3333 6.66666 12.7363 6.66666 11.9999H9.33334ZM8 1.33325C5.42 1.33325 3.33334 3.71991 3.33334 6.6666V8.19325L2 11.9999H5.33334C5.33334 13.4727 6.52725 14.6666 8 14.6666C9.47275 14.6666 10.6667 13.4727 10.6667 11.9999H14L12.6667 8.19325V6.85991C12.6667 4.33325 11.1933 2.01991 9.03334 1.5266C8.69802 1.42046 8.35102 1.35553 8 1.33325ZM3.88 10.6666L4.59334 8.6666L4.66666 8.41991V6.6666C4.66666 4.45991 6.16 2.6666 8 2.6666C8.24043 2.66618 8.48 2.69528 8.71334 2.75325C10.2067 3.11991 11.3333 4.87325 11.3333 6.8266V8.41991L11.4067 8.63325L12.12 10.6666H3.88Z" fill="black"/>
</svg>
